<?xml version="1.0" encoding="UTF-8"?>
<!DOCTYPE svg PUBLIC "-//W3C//DTD SVG 1.1//EN" "http://www.w3.org/Graphics/SVG/1.1/DTD/svg11.dtd">
<svg xmlns="http://www.w3.org/2000/svg" version="1.1" width="1024px" height="1024px" style="shape-rendering:geometricPrecision; text-rendering:geometricPrecision; image-rendering:optimizeQuality; fill-rule:evenodd; clip-rule:evenodd" xmlns:xlink="http://www.w3.org/1999/xlink">
<g><path style="opacity:1" fill="#fefefe" d="M -0.5,-0.5 C 340.833,-0.5 682.167,-0.5 1023.5,-0.5C 1023.5,340.833 1023.5,682.167 1023.5,1023.5C 682.167,1023.5 340.833,1023.5 -0.5,1023.5C -0.5,682.167 -0.5,340.833 -0.5,-0.5 Z"/></g>
<g><path style="opacity:1" fill="#000000" d="M 114.5,135.5 C 379.167,135.5 643.833,135.5 908.5,135.5C 908.5,359.167 908.5,582.833 908.5,806.5C 643.833,806.5 379.167,806.5 114.5,806.5C 114.5,582.833 114.5,359.167 114.5,135.5 Z"/></g>
<g><path style="opacity:1" fill="#707070" d="M 397.5,437.5 C 381.833,436.167 366.167,436.167 350.5,437.5C 349.957,437.44 349.624,437.107 349.5,436.5C 365.833,435.167 382.167,435.167 398.5,436.5C 398.376,437.107 398.043,437.44 397.5,437.5 Z"/></g>
<g><path style="opacity:1" fill="#fcfbfc" d="M 397.5,437.5 C 396.404,441.413 396.238,445.413 397,449.5C 399.188,461.939 401.688,474.272 404.5,486.5C 406.545,497.346 409.212,508.013 412.5,518.5C 414.7,528.604 418.366,538.104 423.5,547C 408.504,547.5 393.504,547.667 378.5,547.5C 381.651,539.765 382.318,531.765 380.5,523.5C 380.57,518.392 379.903,513.392 378.5,508.5C 373.014,507.185 367.68,507.185 362.5,508.5C 365.095,514.285 367.095,520.285 368.5,526.5C 369.787,531.802 369.787,537.136 368.5,542.5C 367.977,544.708 366.644,546.208 364.5,547C 351.167,547.667 337.833,547.667 324.5,547C 327.319,543.195 329.486,539.029 331,534.5C 339.555,506.947 346.222,478.947 351,450.5C 351.768,446.08 351.602,441.747 350.5,437.5C 366.167,436.167 381.833,436.167 397.5,437.5 Z"/></g>
<g><path style="opacity:1" fill="#060405" d="M 370.5,475.5 C 370.5,484.5 370.5,493.5 370.5,502.5C 366.833,502.5 363.167,502.5 359.5,502.5C 356.963,495.716 355.13,488.716 354,481.5C 353.13,475.083 353.464,468.749 355,462.5C 356.691,458.787 359.525,457.621 363.5,459C 366.808,464.113 369.141,469.613 370.5,475.5 Z"/></g>
<g><path style="opacity:1" fill="#685d6e" d="M 600.5,462.5 C 599.791,463.404 598.791,463.737 597.5,463.5C 597.5,464.833 597.5,466.167 597.5,467.5C 587.181,466.885 577.515,469.052 568.5,474C 567,475.5 565.5,477 564,478.5C 563.333,484.167 563.333,489.833 564,495.5C 565.726,496.576 567.559,496.743 569.5,496C 573.714,491.454 577.547,486.621 581,481.5C 583.833,479.333 586.667,477.167 589.5,475C 598.084,472.277 603.084,475.277 604.5,484C 604.646,486.034 603.98,487.701 602.5,489C 587.219,491.888 574.385,499.055 564,510.5C 561.838,514.481 560.005,518.481 558.5,522.5C 556.167,522.5 553.833,522.5 551.5,522.5C 551.667,510.829 551.5,499.162 551,487.5C 549.078,473.076 540.912,466.742 526.5,468.5C 550.753,461.712 575.42,459.712 600.5,462.5 Z"/></g>
<g><path style="opacity:1" fill="#fdfdfd" d="M 503.5,478.5 C 503.174,481.757 504.507,483.257 507.5,483C 509.722,480.044 512.055,477.21 514.5,474.5C 517.828,471.176 521.828,469.176 526.5,468.5C 540.912,466.742 549.078,473.076 551,487.5C 551.5,499.162 551.667,510.829 551.5,522.5C 551.334,529.175 551.5,535.842 552,542.5C 552.707,544.081 553.54,545.581 554.5,547C 543.505,547.5 532.505,547.667 521.5,547.5C 520.325,547.719 519.325,547.386 518.5,546.5C 519.609,544.615 520.443,542.615 521,540.5C 521.5,533.174 521.666,525.841 521.5,518.5C 521.666,510.16 521.5,501.827 521,493.5C 519.427,488.965 516.261,487.465 511.5,489C 508.894,490.938 507.061,493.438 506,496.5C 505.5,503.492 505.334,510.492 505.5,517.5C 505.334,524.841 505.5,532.174 506,539.5C 506.229,542.458 507.396,544.958 509.5,547C 500.173,547.5 490.839,547.666 481.5,547.5C 478.482,547.665 475.482,547.498 472.5,547C 474.068,544.696 475.235,542.196 476,539.5C 476.828,524.328 476.661,509.328 475.5,494.5C 475.771,492.62 475.104,491.287 473.5,490.5C 472.508,488.974 471.008,488.307 469,488.5C 466.345,488.124 464.512,489.124 463.5,491.5C 461.707,493.426 460.707,495.759 460.5,498.5C 459.339,511.994 459.173,525.66 460,539.5C 460.696,542.438 461.862,545.104 463.5,547.5C 453.5,547.5 443.5,547.5 433.5,547.5C 431.143,547.663 428.81,547.497 426.5,547C 428.604,544.958 429.771,542.458 430,539.5C 430.5,531.841 430.666,524.174 430.5,516.5C 430.5,508.167 430.5,499.833 430.5,491.5C 430.666,486.156 430.499,480.823 430,475.5C 429.208,473.413 428.041,471.579 426.5,470C 436.5,469.333 446.5,469.333 456.5,470C 457.333,470.833 458.167,471.667 459,472.5C 459.079,476.358 459.746,480.024 461,483.5C 464.517,480.283 467.684,476.783 470.5,473C 479.098,466.674 488.098,466.007 497.5,471C 500.121,473.114 502.121,475.614 503.5,478.5 Z"/></g>
<g><path style="opacity:1" fill="#fcfcfd" d="M 597.5,467.5 C 610.584,467.958 621.084,473.291 629,483.5C 631.602,487.474 633.102,491.807 633.5,496.5C 633.369,511.521 633.869,526.521 635,541.5C 635.45,543.519 636.283,545.352 637.5,547C 637.272,547.399 636.938,547.565 636.5,547.5C 626.828,547.666 617.161,547.5 607.5,547C 605.962,545.068 604.795,542.901 604,540.5C 603.275,539.941 602.442,539.608 601.5,539.5C 596.391,543.051 591.057,546.051 585.5,548.5C 566.161,550.831 557.161,542.164 558.5,522.5C 560.005,518.481 561.838,514.481 564,510.5C 574.385,499.055 587.219,491.888 602.5,489C 603.98,487.701 604.646,486.034 604.5,484C 603.084,475.277 598.084,472.277 589.5,475C 586.667,477.167 583.833,479.333 581,481.5C 577.547,486.621 573.714,491.454 569.5,496C 567.559,496.743 565.726,496.576 564,495.5C 563.333,489.833 563.333,484.167 564,478.5C 565.5,477 567,475.5 568.5,474C 577.515,469.052 587.181,466.885 597.5,467.5 Z"/></g>
<g><path style="opacity:1" fill="#fdfdfd" d="M 714.5,475.5 C 716.212,478.261 717.378,481.261 718,484.5C 718.5,497.496 718.667,510.496 718.5,523.5C 718.334,528.844 718.501,534.177 719,539.5C 719.598,542.308 720.765,544.808 722.5,547C 721.552,547.483 720.552,547.649 719.5,547.5C 708.162,547.667 696.828,547.5 685.5,547C 687.235,544.808 688.402,542.308 689,539.5C 689.828,523.994 689.661,508.661 688.5,493.5C 687.722,490.39 685.722,488.724 682.5,488.5C 678.029,488.801 675.196,491.134 674,495.5C 673.5,504.494 673.334,513.494 673.5,522.5C 673.334,528.842 673.5,535.175 674,541.5C 674.45,543.519 675.283,545.352 676.5,547C 675.906,547.464 675.239,547.631 674.5,547.5C 662.829,547.667 651.162,547.5 639.5,547C 641.604,544.958 642.771,542.458 643,539.5C 643.499,534.511 643.666,529.511 643.5,524.5C 643.667,508.497 643.5,492.497 643,476.5C 642.484,473.966 641.317,471.8 639.5,470C 647.493,469.5 655.493,469.334 663.5,469.5C 666.237,469.401 668.904,469.735 671.5,470.5C 673.021,474.657 673.854,478.99 674,483.5C 678.065,479.605 681.898,475.605 685.5,471.5C 696.372,465.112 706.039,466.446 714.5,475.5 Z"/></g>
<g><path style="opacity:1" fill="#5d6175" d="M 600.5,462.5 C 621.752,463.826 642.752,466.159 663.5,469.5C 655.493,469.334 647.493,469.5 639.5,470C 641.317,471.8 642.484,473.966 643,476.5C 643.5,492.497 643.667,508.497 643.5,524.5C 640.5,524.5 637.5,524.5 634.5,524.5C 634.827,514.985 634.494,505.652 633.5,496.5C 633.102,491.807 631.602,487.474 629,483.5C 621.084,473.291 610.584,467.958 597.5,467.5C 597.5,466.167 597.5,464.833 597.5,463.5C 598.791,463.737 599.791,463.404 600.5,462.5 Z"/></g>
<g><path style="opacity:1" fill="#58677a" d="M 671.5,470.5 C 676.141,471.127 680.807,471.46 685.5,471.5C 681.898,475.605 678.065,479.605 674,483.5C 673.854,478.99 673.021,474.657 671.5,470.5 Z"/></g>
<g><path style="opacity:1" fill="#4c6e84" d="M 714.5,475.5 C 736.155,476.349 757.822,476.682 779.5,476.5C 779.5,492.5 779.5,508.5 779.5,524.5C 765.167,524.5 750.833,524.5 736.5,524.5C 730.69,523.51 724.69,523.177 718.5,523.5C 718.667,510.496 718.5,497.496 718,484.5C 717.378,481.261 716.212,478.261 714.5,475.5 Z"/></g>
<g><path style="opacity:1" fill="#834f5b" d="M 370.5,475.5 C 373.344,483.178 375.344,491.178 376.5,499.5C 376.5,500.5 376.5,501.5 376.5,502.5C 374.5,502.5 372.5,502.5 370.5,502.5C 370.5,493.5 370.5,484.5 370.5,475.5 Z"/></g>
<g><path style="opacity:1" fill="#765d6c" d="M 514.5,474.5 C 512.055,477.21 509.722,480.044 507.5,483C 504.507,483.257 503.174,481.757 503.5,478.5C 507.058,476.888 510.725,475.555 514.5,474.5 Z"/></g>
<g><path style="opacity:1" fill="#7e4d5c" d="M 404.5,486.5 C 413.116,488.423 421.783,490.09 430.5,491.5C 430.5,499.833 430.5,508.167 430.5,516.5C 424.56,517.317 418.56,517.984 412.5,518.5C 409.212,508.013 406.545,497.346 404.5,486.5 Z"/></g>
<g><path style="opacity:1" fill="#1a1718" d="M 473.5,490.5 C 470.119,490.46 466.786,490.793 463.5,491.5C 464.512,489.124 466.345,488.124 469,488.5C 471.008,488.307 472.508,488.974 473.5,490.5 Z"/></g>
<g><path style="opacity:1" fill="#705667" d="M 521.5,518.5 C 516.203,517.725 510.87,517.392 505.5,517.5C 505.334,510.492 505.5,503.492 506,496.5C 507.061,493.438 508.894,490.938 511.5,489C 516.261,487.465 519.427,488.965 521,493.5C 521.5,501.827 521.666,510.16 521.5,518.5 Z"/></g>
<g><path style="opacity:1" fill="#56667a" d="M 688.5,493.5 C 688.5,503.167 688.5,512.833 688.5,522.5C 683.5,522.5 678.5,522.5 673.5,522.5C 673.334,513.494 673.5,504.494 674,495.5C 675.196,491.134 678.029,488.801 682.5,488.5C 685.722,488.724 687.722,490.39 688.5,493.5 Z"/></g>
<g><path style="opacity:1" fill="#765160" d="M 473.5,490.5 C 475.104,491.287 475.771,492.62 475.5,494.5C 475.5,501.167 475.5,507.833 475.5,514.5C 470.5,514.5 465.5,514.5 460.5,514.5C 460.5,509.167 460.5,503.833 460.5,498.5C 460.707,495.759 461.707,493.426 463.5,491.5C 466.786,490.793 470.119,490.46 473.5,490.5 Z"/></g>
<g><path style="opacity:1" fill="#645f71" d="M 603.5,526.5 C 597.833,526.5 592.167,526.5 586.5,526.5C 583.481,515.754 586.147,506.587 594.5,499C 597.865,496.843 601.032,497.009 604,499.5C 604.824,508.676 604.657,517.676 603.5,526.5 Z"/></g>
<g><path style="opacity:1" fill="#baabaf" d="M 376.5,499.5 C 377.434,500.568 377.768,501.901 377.5,503.5C 371.31,503.823 365.31,503.49 359.5,502.5C 363.167,502.5 366.833,502.5 370.5,502.5C 372.5,502.5 374.5,502.5 376.5,502.5C 376.5,501.5 376.5,500.5 376.5,499.5 Z"/></g>
<g><path style="opacity:1" fill="#0f0a0b" d="M 362.5,508.5 C 365.167,508.5 367.833,508.5 370.5,508.5C 370.5,513.833 370.5,519.167 370.5,524.5C 369.833,525.167 369.167,525.833 368.5,526.5C 367.095,520.285 365.095,514.285 362.5,508.5 Z"/></g>
<g><path style="opacity:1" fill="#875561" d="M 362.5,508.5 C 367.68,507.185 373.014,507.185 378.5,508.5C 379.903,513.392 380.57,518.392 380.5,523.5C 377.119,523.46 373.786,523.793 370.5,524.5C 370.5,519.167 370.5,513.833 370.5,508.5C 367.833,508.5 365.167,508.5 362.5,508.5 Z"/></g>
<g><path style="opacity:1" fill="#dd9db9" d="M 475.5,494.5 C 476.661,509.328 476.828,524.328 476,539.5C 475.235,542.196 474.068,544.696 472.5,547C 475.482,547.498 478.482,547.665 481.5,547.5C 484.092,549.177 487.092,550.343 490.5,551C 488.833,551.333 487.167,551.667 485.5,552C 494.592,552.315 494.592,553.482 485.5,555.5C 486.325,556.386 487.325,556.719 488.5,556.5C 488.5,564.833 488.5,573.167 488.5,581.5C 482.833,581.5 477.167,581.5 471.5,581.5C 470.167,581.5 468.833,581.5 467.5,581.5C 467.5,559.833 467.5,538.167 467.5,516.5C 466.5,516.5 465.5,516.5 464.5,516.5C 463.985,527.606 464.651,538.606 466.5,549.5C 466.563,551.481 465.896,553.148 464.5,554.5C 464.564,552.136 464.231,549.803 463.5,547.5C 461.862,545.104 460.696,542.438 460,539.5C 459.173,525.66 459.339,511.994 460.5,498.5C 460.5,503.833 460.5,509.167 460.5,514.5C 465.5,514.5 470.5,514.5 475.5,514.5C 475.5,507.833 475.5,501.167 475.5,494.5 Z"/></g>
<g><path style="opacity:1" fill="#e096b3" d="M 471.5,581.5 C 471.5,581.833 471.5,582.167 471.5,582.5C 454.833,582.5 438.167,582.5 421.5,582.5C 427.31,581.51 433.31,581.177 439.5,581.5C 439.5,572.5 439.5,563.5 439.5,554.5C 437.801,554.66 436.134,554.494 434.5,554C 437.7,553.899 440.7,553.232 443.5,552C 439.148,551.581 438.815,550.914 442.5,550C 439.203,549.796 436.203,548.963 433.5,547.5C 443.5,547.5 453.5,547.5 463.5,547.5C 464.231,549.803 464.564,552.136 464.5,554.5C 465.896,553.148 466.563,551.481 466.5,549.5C 464.651,538.606 463.985,527.606 464.5,516.5C 465.5,516.5 466.5,516.5 467.5,516.5C 467.5,538.167 467.5,559.833 467.5,581.5C 468.833,581.5 470.167,581.5 471.5,581.5 Z"/></g>
<g><path style="opacity:1" fill="#eb91ac" d="M 430.5,516.5 C 430.666,524.174 430.5,531.841 430,539.5C 429.771,542.458 428.604,544.958 426.5,547C 428.81,547.497 431.143,547.663 433.5,547.5C 436.203,548.963 439.203,549.796 442.5,550C 438.815,550.914 439.148,551.581 443.5,552C 440.7,553.232 437.7,553.899 434.5,554C 436.134,554.494 437.801,554.66 439.5,554.5C 439.5,563.5 439.5,572.5 439.5,581.5C 433.31,581.177 427.31,581.51 421.5,582.5C 404.5,582.5 387.5,582.5 370.5,582.5C 370.5,582.167 370.5,581.833 370.5,581.5C 380.167,581.5 389.833,581.5 399.5,581.5C 399.5,573.167 399.5,564.833 399.5,556.5C 393.385,554.457 387.051,553.291 380.5,553C 378.282,551.506 377.615,549.673 378.5,547.5C 393.504,547.667 408.504,547.5 423.5,547C 418.366,538.104 414.7,528.604 412.5,518.5C 418.56,517.984 424.56,517.317 430.5,516.5 Z"/></g>
<g><path style="opacity:1" fill="#c5a9cb" d="M 551.5,522.5 C 553.833,522.5 556.167,522.5 558.5,522.5C 557.161,542.164 566.161,550.831 585.5,548.5C 587.591,548.318 589.591,548.652 591.5,549.5C 592.59,550.391 592.59,551.391 591.5,552.5C 586.599,554.544 581.599,556.21 576.5,557.5C 576.5,565.5 576.5,573.5 576.5,581.5C 573.941,581.198 571.607,581.532 569.5,582.5C 551.833,582.5 534.167,582.5 516.5,582.5C 520.97,581.514 525.637,581.181 530.5,581.5C 530.5,572.833 530.5,564.167 530.5,555.5C 521.218,554.64 521.218,553.474 530.5,552C 528.167,551.667 525.833,551.333 523.5,551C 522.177,550.184 521.511,549.017 521.5,547.5C 532.505,547.667 543.505,547.5 554.5,547C 553.54,545.581 552.707,544.081 552,542.5C 551.5,535.842 551.334,529.175 551.5,522.5 Z"/></g>
<g><path style="opacity:1" fill="#99c8f1" d="M 718.5,523.5 C 724.69,523.177 730.69,523.51 736.5,524.5C 734.396,524.201 732.396,524.534 730.5,525.5C 731.239,543.962 731.572,562.629 731.5,581.5C 720.5,581.5 709.5,581.5 698.5,581.5C 698.5,573.167 698.5,564.833 698.5,556.5C 704.261,556.291 704.594,555.458 699.5,554C 704.957,552.277 710.624,551.277 716.5,551C 718.426,550.578 719.426,549.411 719.5,547.5C 720.552,547.649 721.552,547.483 722.5,547C 720.765,544.808 719.598,542.308 719,539.5C 718.501,534.177 718.334,528.844 718.5,523.5 Z"/></g>
<g><path style="opacity:1" fill="#f58ca6" d="M 380.5,523.5 C 382.318,531.765 381.651,539.765 378.5,547.5C 377.615,549.673 378.282,551.506 380.5,553C 387.051,553.291 393.385,554.457 399.5,556.5C 399.5,564.833 399.5,573.167 399.5,581.5C 389.833,581.5 380.167,581.5 370.5,581.5C 370.5,562.5 370.5,543.5 370.5,524.5C 373.786,523.793 377.119,523.46 380.5,523.5 Z"/></g>
<g><path style="opacity:1" fill="#8fcffa" d="M 736.5,524.5 C 750.833,524.5 765.167,524.5 779.5,524.5C 779.5,543.5 779.5,562.5 779.5,581.5C 763.5,581.5 747.5,581.5 731.5,581.5C 731.572,562.629 731.239,543.962 730.5,525.5C 732.396,524.534 734.396,524.201 736.5,524.5 Z"/></g>
<g><path style="opacity:1" fill="#bbb1d3" d="M 586.5,526.5 C 592.167,526.5 597.833,526.5 603.5,526.5C 602.281,534.064 597.948,536.564 590.5,534C 587.976,532.117 586.642,529.617 586.5,526.5 Z"/></g>
<g><path style="opacity:1" fill="#b8b1d4" d="M 636.5,547.5 C 636.607,549.903 635.607,551.736 633.5,553C 629.805,553.318 626.138,553.818 622.5,554.5C 620.702,555.131 619.369,556.298 618.5,558C 619.421,565.794 619.421,573.461 618.5,581C 629.495,581.5 640.495,581.667 651.5,581.5C 651.5,581.833 651.5,582.167 651.5,582.5C 624.167,582.5 596.833,582.5 569.5,582.5C 571.607,581.532 573.941,581.198 576.5,581.5C 576.5,573.5 576.5,565.5 576.5,557.5C 581.599,556.21 586.599,554.544 591.5,552.5C 592.59,551.391 592.59,550.391 591.5,549.5C 589.591,548.652 587.591,548.318 585.5,548.5C 591.057,546.051 596.391,543.051 601.5,539.5C 602.442,539.608 603.275,539.941 604,540.5C 604.795,542.901 605.962,545.068 607.5,547C 617.161,547.5 626.828,547.666 636.5,547.5 Z"/></g>
<g><path style="opacity:1" fill="#a2bfe6" d="M 688.5,493.5 C 689.661,508.661 689.828,523.994 689,539.5C 688.402,542.308 687.235,544.808 685.5,547C 696.828,547.5 708.162,547.667 719.5,547.5C 719.426,549.411 718.426,550.578 716.5,551C 710.624,551.277 704.957,552.277 699.5,554C 704.594,555.458 704.261,556.291 698.5,556.5C 698.5,564.833 698.5,573.167 698.5,581.5C 709.5,581.5 720.5,581.5 731.5,581.5C 747.5,581.5 763.5,581.5 779.5,581.5C 737.003,582.499 694.337,582.832 651.5,582.5C 651.5,582.167 651.5,581.833 651.5,581.5C 655.833,581.5 660.167,581.5 664.5,581.5C 664.5,572.833 664.5,564.167 664.5,555.5C 662.146,555.162 659.813,554.662 657.5,554C 662.547,553.662 667.547,552.995 672.5,552C 674.037,550.89 674.703,549.39 674.5,547.5C 675.239,547.631 675.906,547.464 676.5,547C 675.283,545.352 674.45,543.519 674,541.5C 673.5,535.175 673.334,528.842 673.5,522.5C 678.5,522.5 683.5,522.5 688.5,522.5C 688.5,512.833 688.5,503.167 688.5,493.5 Z"/></g>
<g><path style="opacity:1" fill="#4f3038" d="M 370.5,524.5 C 370.5,543.5 370.5,562.5 370.5,581.5C 370.5,581.833 370.5,582.167 370.5,582.5C 369.833,569.167 369.167,555.833 368.5,542.5C 369.787,537.136 369.787,531.802 368.5,526.5C 369.167,525.833 369.833,525.167 370.5,524.5 Z"/></g>
<g><path style="opacity:1" fill="#d4a0bf" d="M 505.5,517.5 C 510.87,517.392 516.203,517.725 521.5,518.5C 521.666,525.841 521.5,533.174 521,540.5C 520.443,542.615 519.609,544.615 518.5,546.5C 519.325,547.386 520.325,547.719 521.5,547.5C 521.511,549.017 522.177,550.184 523.5,551C 525.833,551.333 528.167,551.667 530.5,552C 521.218,553.474 521.218,554.64 530.5,555.5C 530.5,564.167 530.5,572.833 530.5,581.5C 525.637,581.181 520.97,581.514 516.5,582.5C 501.5,582.5 486.5,582.5 471.5,582.5C 471.5,582.167 471.5,581.833 471.5,581.5C 477.167,581.5 482.833,581.5 488.5,581.5C 488.5,573.167 488.5,564.833 488.5,556.5C 487.325,556.719 486.325,556.386 485.5,555.5C 494.592,553.482 494.592,552.315 485.5,552C 487.167,551.667 488.833,551.333 490.5,551C 487.092,550.343 484.092,549.177 481.5,547.5C 490.839,547.666 500.173,547.5 509.5,547C 507.396,544.958 506.229,542.458 506,539.5C 505.5,532.174 505.334,524.841 505.5,517.5 Z"/></g>
<g><path style="opacity:1" fill="#acbadf" d="M 633.5,496.5 C 634.494,505.652 634.827,514.985 634.5,524.5C 637.5,524.5 640.5,524.5 643.5,524.5C 643.666,529.511 643.499,534.511 643,539.5C 642.771,542.458 641.604,544.958 639.5,547C 651.162,547.5 662.829,547.667 674.5,547.5C 674.703,549.39 674.037,550.89 672.5,552C 667.547,552.995 662.547,553.662 657.5,554C 659.813,554.662 662.146,555.162 664.5,555.5C 664.5,564.167 664.5,572.833 664.5,581.5C 660.167,581.5 655.833,581.5 651.5,581.5C 640.495,581.667 629.495,581.5 618.5,581C 619.421,573.461 619.421,565.794 618.5,558C 619.369,556.298 620.702,555.131 622.5,554.5C 626.138,553.818 629.805,553.318 633.5,553C 635.607,551.736 636.607,549.903 636.5,547.5C 636.938,547.565 637.272,547.399 637.5,547C 636.283,545.352 635.45,543.519 635,541.5C 633.869,526.521 633.369,511.521 633.5,496.5 Z"/></g>
</svg>
